<?xml version="1.0" encoding="UTF-8" standalone="no"?>
<svg
   enable-background="new 0 0 64 64"
   viewBox="0 0 64 64"
   version="1.1"
   id="svg11"
   sodipodi:docname="radioIcon.svg"
   inkscape:export-filename="radioIcon.png"
   inkscape:export-xdpi="225"
   inkscape:export-ydpi="225"
   inkscape:version="1.4 (86a8ad7, 2024-10-11)"
   xmlns:inkscape="http://www.inkscape.org/namespaces/inkscape"
   xmlns:sodipodi="http://sodipodi.sourceforge.net/DTD/sodipodi-0.dtd"
   xmlns="http://www.w3.org/2000/svg"
   xmlns:svg="http://www.w3.org/2000/svg">
  <defs
     id="defs11" />
  <sodipodi:namedview
     id="namedview11"
     pagecolor="#ffffff"
     bordercolor="#000000"
     borderopacity="0.25"
     inkscape:showpageshadow="2"
     inkscape:pageopacity="0.0"
     inkscape:pagecheckerboard="0"
     inkscape:deskcolor="#d1d1d1"
     inkscape:zoom="12.078125"
     inkscape:cx="31.958603"
     inkscape:cy="32"
     inkscape:window-width="1920"
     inkscape:window-height="991"
     inkscape:window-x="-9"
     inkscape:window-y="-9"
     inkscape:window-maximized="1"
     inkscape:current-layer="svg11" />
  <circle
     cx="32"
     cy="32"
     fill="#c75c5c"
     r="32"
     id="circle1" />
  <path
     d="m50 27c-.1 0-.2 0-.3 0l-34-9c-.5-.1-.9-.7-.7-1.2.1-.5.7-.9 1.2-.7l34 9c.5.1.9.7.7 1.2-.1.4-.5.7-.9.7z"
     fill="#231f20"
     opacity=".2"
     id="path1" />
  <path
     d="m50 24-34-9"
     fill="none"
     stroke="#e0e0d1"
     stroke-linecap="round"
     stroke-miterlimit="10"
     stroke-width="2"
     id="path2" />
  <path
     d="m52 47c0 1.1-.9 2-2 2h-36c-1.1 0-2-.9-2-2v-20c0-1.1.9-2 2-2h36c1.1 0 2 .9 2 2z"
     fill="#231f20"
     opacity=".2"
     id="path3" />
  <path
     d="m52 45c0 1.1-.9 2-2 2h-36c-1.1 0-2-.9-2-2v-20c0-1.1.9-2 2-2h36c1.1 0 2 .9 2 2z"
     fill="#f5cf87"
     id="path4" />
  <circle
     cx="24"
     cy="35"
     fill="#4f5d73"
     r="8"
     id="circle4" />
  <g
     fill="#231f20"
     id="g7">
    <path
       d="m24 29c4.1 0 7.4 3.1 7.9 7 0-.3.1-.7.1-1 0-4.4-3.6-8-8-8s-8 3.6-8 8c0 .3 0 .7.1 1 .5-3.9 3.8-7 7.9-7z"
       opacity=".2"
       id="path5" />
    <circle
       cx="36.5"
       cy="42.5"
       opacity=".2"
       r="1.5"
       id="circle5" />
    <circle
       cx="41.5"
       cy="42.5"
       opacity=".2"
       r="1.5"
       id="circle6" />
    <circle
       cx="46.5"
       cy="42.5"
       opacity=".2"
       r="1.5"
       id="circle7" />
  </g>
  <circle
     cx="36.5"
     cy="41.5"
     fill="#4f5d73"
     r="1.5"
     id="circle8" />
  <circle
     cx="41.5"
     cy="41.5"
     fill="#4f5d73"
     r="1.5"
     id="circle9" />
  <circle
     cx="46.5"
     cy="41.5"
     fill="#4f5d73"
     r="1.5"
     id="circle10" />
  <path
     d="m48 35c0 1.1-.9 2-2 2h-9c-1.1 0-2-.9-2-2v-5c0-1.1.9-2 2-2h9c1.1 0 2 .9 2 2z"
     fill="#fff"
     id="path10" />
  <path
     d="m46 28h-9c-1.1 0-2 .9-2 2v2c0-1.1.9-2 2-2h9c1.1 0 2 .9 2 2v-2c0-1.1-.9-2-2-2z"
     fill="#231f20"
     opacity=".2"
     id="path11" />
</svg>
